<?xml version="1.0" encoding="utf-8"?>
<!-- Generator: Adobe Illustrator 27.5.0, SVG Export Plug-In . SVG Version: 6.00 Build 0)  -->
<svg version="1.1" xmlns="http://www.w3.org/2000/svg" xmlns:xlink="http://www.w3.org/1999/xlink" x="0px" y="0px"
	 viewBox="0 0 500 500.001" style="enable-background:new 0 0 500 500.001;" xml:space="preserve">
<g id="BACKGROUND">
	<rect style="fill:#FFFFFF;" width="499.999" height="499.999"/>
</g>
<g id="OBJECTS">
	<g>
		
			<text transform="matrix(1 0 0 1 155.1768 335.4873)" style="fill:#CCD2D6; font-family:'PoiretOne-Regular'; font-size:18.8313px; letter-spacing:1;">za compan yname</text>
		<g>
			<g>
				<path style="fill:#CCD2D6;" d="M254.571,164.904l27.713,83.048h-29.33h-0.661h-2.79l-4.971,4.309
					c-3.438,12.077-9.006,21.693-16.06,28.691c-8.149,6.158-17.804,9.338-28.202,9.338h-0.136l-6.972,8.718h52.521l4.971-4.309
					l1.88-38.222h32.72l11.678,34.58h-7.174l-4.971,4.309v3.642h62.643l4.971-4.309v-3.642h-8.811l-47.826-130.463h-36.223
					L254.571,164.904z"/>
				<polygon style="fill:#CCD2D6;" points="206.746,164.904 147.597,295.366 147.597,299.008 186.716,299.008 191.687,294.699 
					193.756,290.29 250.461,164.81 250.461,160.595 211.717,160.595 				"/>
				<path style="fill:#CCD2D6;" d="M156.208,202.934c6.313-13.123,11.401-22.028,17.029-27.911
					c6.212-4.355,13.512-5.904,23.785-5.904h0.713l4.971-4.309l1.915-4.215h-48.989l-4.971,4.309l-2.874,42.339h3.45
					C151.036,207.346,156.208,202.934,156.208,202.934z"/>
			</g>
			<g>
				<path style="fill:#4E5051;" d="M343.591,291.058l-47.826-130.463h-36.223l29.15,87.357h-35.738h-0.661h-2.79
					c-7.853,27.589-26.819,42.338-49.232,42.338h-0.136l-2.001,4.409h52.521l2.092-42.531h37.479l13.134,38.89h-13.6v3.642h62.643
					v-3.642H343.591z"/>
				<path style="fill:#4E5051;" d="M201.993,164.81h0.713l1.915-4.215h-48.989l-2.874,42.339h3.45
					C170.769,172.666,178.813,164.81,201.993,164.81z"/>
				<polygon style="fill:#4E5051;" points="250.461,160.595 211.717,160.595 152.568,291.058 152.568,294.699 191.687,294.699 
					193.756,290.29 250.461,164.81 				"/>
			</g>
		</g>
	</g>
</g>
</svg>
